<svg width="24" height="22" viewBox="0 0 24 22" fill="none" xmlns="http://www.w3.org/2000/svg">
<path d="M18.8012 13.3997C21.2041 13.3997 23.1575 15.3279 23.1575 17.6999C23.1575 20.0704 21.2041 22 18.8012 22C16.3982 22 14.4448 20.0704 14.4448 17.6999C14.4448 15.3279 16.3982 13.3997 18.8012 13.3997ZM18.8012 15.4167C17.5248 15.4167 16.4881 16.4399 16.4881 17.6999C16.4881 18.9584 17.5248 19.983 18.8012 19.983C20.0775 19.983 21.1142 18.9584 21.1142 17.6999C21.1142 16.4399 20.0775 15.4167 18.8012 15.4167ZM9.39881 16.691C9.96276 16.691 10.4205 17.1428 10.4205 17.6994C10.4205 18.2561 9.96276 18.7079 9.39881 18.7079H1.02261C0.458654 18.7079 0.000953544 18.2561 0.000953544 17.6994C0.000953544 17.1428 0.458654 16.691 1.02261 16.691H9.39881ZM4.35633 0C6.75926 0 8.71266 1.92955 8.71266 4.30015C8.71266 6.67074 6.75926 8.60029 4.35633 8.60029C1.95476 8.60029 0 6.67074 0 4.30015C0 1.92955 1.95476 0 4.35633 0ZM4.35633 2.01695C3.08131 2.01695 2.04331 3.04157 2.04331 4.30015C2.04331 5.55873 3.08131 6.58334 4.35633 6.58334C5.63272 6.58334 6.66936 5.55873 6.66936 4.30015C6.66936 3.04157 5.63272 2.01695 4.35633 2.01695ZM22.1362 3.29194C22.7002 3.29194 23.1579 3.74374 23.1579 4.30042C23.1579 4.8571 22.7002 5.30889 22.1362 5.30889H13.7587C13.1947 5.30889 12.737 4.8571 12.737 4.30042C12.737 3.74374 13.1947 3.29194 13.7587 3.29194H22.1362Z" fill="#111111"/>
</svg>
