<svg xmlns="http://www.w3.org/2000/svg" viewBox="0 0 31.51 39.59"><defs><style>.cls-1{fill:#200e32;}</style></defs><g id="Layer_2" data-name="Layer 2"><g id="Layer_1-2" data-name="Layer 1"><path class="cls-1" d="M15.75,24.91h.65C26,25,31.51,27,31.51,32.27S26.3,39.42,17,39.58H15.75C5.72,39.59,0,37.65,0,32.23S5.69,24.91,15.75,24.91Zm0,3h-.67C7.11,28,3,29.44,3,32.23s4.35,4.36,12.75,4.36,12.76-1.46,12.76-4.32S24.16,27.91,15.75,27.91ZM15.75,0A10.64,10.64,0,1,1,5.12,10.64,10.61,10.61,0,0,1,15.75,0Zm0,3a7.64,7.64,0,1,0,7.64,7.64A7.6,7.6,0,0,0,15.75,3Z"/></g></g></svg>