<svg width="21" height="20" viewBox="0 0 21 20" fill="none" xmlns="http://www.w3.org/2000/svg">
<path d="M19.1064 9.50003C19.1099 10.8199 18.8015 12.1219 18.2064 13.3C17.5009 14.7118 16.4162 15.8992 15.0739 16.7293C13.7316 17.5594 12.1847 17.9994 10.6064 18C9.28658 18.0035 7.98456 17.6951 6.80645 17.1L1.10645 19L3.00645 13.3C2.41138 12.1219 2.103 10.8199 2.10645 9.50003C2.10706 7.92179 2.54706 6.37488 3.37716 5.03258C4.20727 3.69028 5.3947 2.6056 6.80645 1.90003C7.98456 1.30496 9.28658 0.996587 10.6064 1.00003H11.1064C13.1908 1.11502 15.1595 1.99479 16.6356 3.47089C18.1117 4.94699 18.9915 6.91568 19.1064 9.00003V9.50003Z" stroke="#111111" stroke-width="2" stroke-linecap="round" stroke-linejoin="round"/>
</svg>
