<svg width="25" height="22" viewBox="0 0 25 22" fill="none" xmlns="http://www.w3.org/2000/svg">
<path d="M17.7531 0C19.6035 0.0208399 21.3647 0.804144 22.6265 2.16754C23.8883 3.53094 24.5405 5.35542 24.433 7.16096L24.4314 14.7839C24.5405 16.6446 23.8883 18.4691 22.6265 19.8325C21.3647 21.1959 19.6035 21.9792 17.7428 22H6.66867C2.79479 22 0 18.8693 0 14.839V7.16096C0 3.13073 2.79479 0 6.66867 0H17.7531ZM17.7325 1.86802H6.66867C3.86563 1.86802 1.85465 4.12079 1.85465 7.16096V14.839C1.85465 17.8792 3.86563 20.132 6.66867 20.132H17.7325C19.0756 20.1169 20.354 19.5483 21.2698 18.5587C22.1857 17.569 22.6592 16.2447 22.5783 14.839L22.5799 7.10586C22.6592 5.75528 22.1857 4.43096 21.2698 3.44132C20.354 2.45168 19.0756 1.8831 17.7325 1.86802Z" fill="black"/>
<rect width="16" height="1.8" rx="0.9" transform="matrix(1 0 0 -1 4 6.7998)" fill="black"/>
<rect width="16" height="1.8" rx="0.9" transform="matrix(1 0 0 -1 4 10.6001)" fill="black"/>
</svg>
