<svg width="24" height="22" viewBox="0 0 24 22" fill="none" xmlns="http://www.w3.org/2000/svg">
<path d="M5.19097 0.365074C7.22572 -0.289437 9.4275 -0.0539116 11.2698 0.99143L11.5748 1.17445L11.8852 0.990403C13.6319 0.00150662 15.7038 -0.262741 17.6536 0.273531L17.9612 0.365142C22.2139 1.73429 24.1179 6.3777 22.6874 10.8207C21.9702 12.8875 20.7939 14.7614 19.2412 16.3059C17.1284 18.3578 14.7993 20.1698 12.299 21.7074L12.0335 21.8723C11.764 22.0399 11.4233 22.0427 11.151 21.8797L10.8667 21.7095C8.36294 20.1698 6.03381 18.3578 3.91373 16.2988C2.36829 14.7614 1.19202 12.8875 0.468739 10.8026C-0.956578 6.37501 0.939651 1.7338 5.19097 0.365074ZM10.8549 2.726C9.34486 1.69387 7.4491 1.41655 5.7102 1.9759C2.41706 3.03614 0.924089 6.69033 2.07503 10.2663C2.70805 12.0904 3.74585 13.7437 5.10147 15.0924C7.12539 17.058 9.35636 18.7936 11.7457 20.263L11.5804 20.1588L12.1221 19.8181C14.0135 18.5969 15.7949 17.2111 17.4421 15.6803L18.0535 15.0995C19.4164 13.7437 20.4542 12.0904 21.0811 10.2844C22.237 6.69374 20.7375 3.03697 17.4426 1.97617C15.6168 1.39042 13.6238 1.72592 12.0838 2.87882C11.7881 3.10017 11.3829 3.10445 11.0826 2.88939L10.8549 2.726ZM16.0603 4.61275C17.5904 5.10112 18.6754 6.471 18.8108 8.0804C18.85 8.54607 18.504 8.95531 18.0379 8.99446C17.5718 9.0336 17.1623 8.68783 17.1231 8.22216C17.0449 7.29246 16.4206 6.5043 15.5449 6.22481C15.0994 6.08261 14.8536 5.60646 14.9959 5.1613C15.1382 4.71615 15.6148 4.47055 16.0603 4.61275Z" fill="black"/>
</svg>
