<svg width="25" height="22" viewBox="0 0 25 22" fill="none" xmlns="http://www.w3.org/2000/svg">
<path d="M17.7531 0C19.6035 0.0208399 21.3647 0.804144 22.6265 2.16754C23.8883 3.53094 24.5405 5.35542 24.433 7.16096L24.4314 14.7839C24.5405 16.6446 23.8883 18.4691 22.6265 19.8325C21.3647 21.1959 19.6035 21.9792 17.7428 22H6.66867C2.79479 22 0 18.8693 0 14.839V7.16096C0 3.13073 2.79479 0 6.66867 0H17.7531ZM17.7325 1.86802H6.66867C3.86563 1.86802 1.85465 4.12079 1.85465 7.16096V14.839C1.85465 17.8792 3.86563 20.132 6.66867 20.132H17.7325C19.0756 20.1169 20.354 19.5483 21.2698 18.5587C22.1857 17.569 22.6592 16.2447 22.5783 14.839L22.5799 7.10586C22.6592 5.75528 22.1857 4.43096 21.2698 3.44132C20.354 2.45168 19.0756 1.8831 17.7325 1.86802ZM19.5849 6.89134C19.8759 7.25746 19.8489 7.77653 19.5411 8.11007L19.4404 8.20423L14.4208 12.2511C13.2016 13.2082 11.5171 13.2561 10.2459 12.3903L10.0488 12.246L4.99554 8.20665C4.59438 7.88598 4.52726 7.29845 4.84563 6.89438C5.13506 6.52704 5.64344 6.43778 6.03488 6.66551L6.14847 6.74338L11.1953 10.7777C11.7612 11.2219 12.5369 11.2561 13.1276 10.8861L13.2712 10.7852L18.2815 6.74581C18.6813 6.42345 19.2649 6.48861 19.5849 6.89134Z" fill="black"/>
</svg>
