<svg width="22" height="22" viewBox="0 0 22 22" fill="none" xmlns="http://www.w3.org/2000/svg">
<path fill-rule="evenodd" clip-rule="evenodd" d="M21.6758 0.217239C21.8814 0.391408 22 0.647217 22 0.916673V15.4815C22 17.844 20.0848 19.7593 17.7222 19.7593C15.3597 19.7593 13.4444 17.844 13.4444 15.4815C13.4444 13.1189 15.3597 11.2037 17.7222 11.2037C18.6311 11.2037 19.4738 11.4871 20.1667 11.9705V1.99876L8.55555 3.93395V17.7222C8.55555 20.0848 6.64033 22 4.27778 22C1.91523 22 0 20.0848 0 17.7222C0 15.3597 1.91523 13.4444 4.27778 13.4444C5.18665 13.4444 6.02932 13.7279 6.72222 14.2112V3.15741C6.72222 2.70931 7.04618 2.32689 7.48819 2.25322L20.9326 0.0124792C21.1984 -0.0318191 21.4702 0.0430688 21.6758 0.217239ZM6.72222 17.7222C6.72222 16.3722 5.6278 15.2778 4.27778 15.2778C2.92775 15.2778 1.83333 16.3722 1.83333 17.7222C1.83333 19.0723 2.92775 20.1667 4.27778 20.1667C5.6278 20.1667 6.72222 19.0723 6.72222 17.7222ZM20.1667 15.4815C20.1667 14.1315 19.0722 13.037 17.7222 13.037C16.3722 13.037 15.2778 14.1315 15.2778 15.4815C15.2778 16.8315 16.3722 17.9259 17.7222 17.9259C19.0722 17.9259 20.1667 16.8315 20.1667 15.4815Z" fill="#111111"/>
</svg>
