<svg width="14" height="22" viewBox="0 0 14 22" fill="none" xmlns="http://www.w3.org/2000/svg">
<path d="M1.64787 0C1.99634 0 2.33053 0.12877 2.57693 0.357981C2.82333 0.587192 2.96176 0.898069 2.96176 1.22222V20.7778C2.96176 21.1019 2.82333 21.4128 2.57693 21.642C2.33053 21.8712 1.99634 22 1.64787 22C1.29941 22 0.965216 21.8712 0.718814 21.642C0.472412 21.4128 0.333984 21.1019 0.333984 20.7778V1.22222C0.333984 0.898069 0.472412 0.587192 0.718814 0.357981C0.965216 0.12877 1.29941 0 1.64787 0ZM12.159 0C12.5074 0 12.8416 0.12877 13.088 0.357981C13.3344 0.587192 13.4729 0.898069 13.4729 1.22222V20.7778C13.4729 21.1019 13.3344 21.4128 13.088 21.642C12.8416 21.8712 12.5074 22 12.159 22C11.8105 22 11.4763 21.8712 11.2299 21.642C10.9835 21.4128 10.8451 21.1019 10.8451 20.7778V1.22222C10.8451 0.898069 10.9835 0.587192 11.2299 0.357981C11.4763 0.12877 11.8105 0 12.159 0Z" fill="white"/>
</svg>
