<svg width="28" height="23" viewBox="0 0 28 23" fill="none" xmlns="http://www.w3.org/2000/svg">
<path d="M1.90595 22.267C1.76984 22.2665 1.63886 22.215 1.53874 22.1228C1.43862 22.0306 1.37658 21.9043 1.36482 21.7687C1.22627 20.1402 1.05726 14.5149 4.67835 10.5761C6.98287 8.06847 10.3653 6.75554 14.7401 6.67792V1.51468C14.7387 1.41776 14.7652 1.32248 14.8163 1.24011C14.8674 1.15774 14.941 1.09171 15.0284 1.04984C15.1158 1.00796 15.2134 0.991975 15.3096 1.00378C15.4058 1.01558 15.4967 1.05468 15.5714 1.11645L27.115 10.7321C27.1729 10.7797 27.2195 10.8396 27.2515 10.9073C27.2835 10.9751 27.3001 11.0492 27.3001 11.1241C27.3001 11.1991 27.2835 11.2731 27.2515 11.3409C27.2195 11.4087 27.1729 11.4686 27.115 11.5162L15.5801 21.126C15.5057 21.192 15.4136 21.2346 15.3152 21.2487C15.2168 21.2628 15.1164 21.2478 15.0265 21.2054C14.9366 21.163 14.8612 21.0951 14.8095 21.0102C14.7578 20.9253 14.7321 20.8271 14.7357 20.7278V15.4681C14.7359 15.4533 14.7307 15.439 14.7211 15.4278C14.7114 15.4166 14.6981 15.4092 14.6835 15.4071C13.1413 15.13 7.68359 14.7833 2.34771 22.0255C2.29849 22.0976 2.23268 22.1568 2.15581 22.1982C2.07894 22.2396 1.99325 22.262 1.90595 22.2634V22.267ZM15.4763 7.40983C15.3944 7.49068 15.2838 7.5358 15.1688 7.53532C10.8375 7.53532 7.52401 8.75251 5.3145 11.1622C2.40864 14.3227 2.11849 18.6887 2.17434 20.8359C7.64514 13.9056 13.2197 14.2697 14.8351 14.5642C15.0483 14.6017 15.2417 14.7125 15.3818 14.8776C15.5218 15.0427 15.5997 15.2516 15.6018 15.4681V19.9799L26.2315 11.1223L15.6018 2.26617V7.10009C15.6023 7.15744 15.5915 7.21433 15.57 7.26749C15.5485 7.32064 15.5166 7.36902 15.4763 7.40983Z" fill="black" stroke="#111111"/>
</svg>
