<svg width="24" height="22" viewBox="0 0 24 22" fill="none" xmlns="http://www.w3.org/2000/svg">
<path d="M11.5789 0C12.2424 0.00347368 12.8468 0.378631 13.1421 0.97263L15.7601 6.22947C15.7717 6.24104 15.7832 6.25262 15.7937 6.25262L21.6549 7.09788C22.1134 7.16273 22.5291 7.40357 22.8128 7.76946C23.335 8.46883 23.2551 9.44493 22.6275 10.0505L18.3781 14.161C18.3781 14.161 18.37 14.1691 18.37 14.1726C18.37 14.1761 18.37 14.1726 18.3781 14.1842L19.397 19.9852C19.536 20.9289 18.8922 21.8112 17.9497 21.9652C17.8593 21.978 17.7667 21.9861 17.6752 21.9861C17.3881 21.9872 17.1044 21.9166 16.8508 21.78L11.616 19.0473C11.5998 19.0462 11.5836 19.0508 11.5697 19.0589L6.29894 21.8147C6.05578 21.9374 5.78483 22.0011 5.51157 22C4.86315 22.0011 4.26684 21.6445 3.96115 21.0737C3.77936 20.7379 3.71336 20.3511 3.77473 19.9737L4.80641 14.1958C4.80641 14.183 4.80294 14.1703 4.79368 14.161L0.509473 10.0389C0.184105 9.72167 0.00115789 9.2863 0 8.83125C0 8.35188 0.19221 7.8922 0.533789 7.55757C0.803578 7.31441 1.13705 7.15462 1.49484 7.09441L7.3422 6.24915C7.36536 6.24915 7.38967 6.23873 7.38967 6.21441L10.0042 0.97263C10.2103 0.556947 10.5727 0.242 11.0116 0.0926314C11.1945 0.0301052 11.3867 0 11.5789 0ZM11.5789 1.69052H11.5569L11.5454 1.69863C11.5349 1.70442 11.528 1.71368 11.5222 1.7241L8.9042 6.96936C8.65178 7.48462 8.1643 7.84241 7.59694 7.93041L1.77273 8.76525L1.7021 8.78841C1.69284 8.80346 1.69052 8.81851 1.69168 8.83588L5.97589 12.9464C6.38346 13.347 6.56873 13.9225 6.47378 14.4864L5.45483 20.2527V20.2759C5.46062 20.299 5.48147 20.3152 5.50578 20.3152H5.52431L10.7684 17.5652C11.0255 17.4286 11.3126 17.3557 11.6032 17.3557C11.8858 17.3545 12.1637 17.424 12.4138 17.5537L17.6243 20.2747H17.6347C17.6451 20.2805 17.6567 20.2851 17.6683 20.2863C17.6729 20.2886 17.6776 20.2886 17.6822 20.2863H17.7065L17.7297 20.2643L16.7096 14.4968C16.5972 13.9283 16.786 13.3424 17.2086 12.9464L21.4581 8.82546L21.4697 8.79999L21.4581 8.78957H21.4419C21.4326 8.78493 21.4222 8.78262 21.4118 8.78262L15.5505 7.93041C14.9831 7.84357 14.4945 7.48462 14.2432 6.96936L11.6264 1.73684C11.6276 1.72642 11.6241 1.71716 11.6171 1.71021C11.609 1.70326 11.5998 1.70094 11.5894 1.70094L11.5789 1.69052Z" fill="#111111"/>
</svg>
