<svg width="24" height="22" viewBox="0 0 24 22" fill="none" xmlns="http://www.w3.org/2000/svg">
<path d="M21.9383 0.00225256C21.6457 0.0242591 21.3585 0.0952212 21.0879 0.21237H21.0843C20.8245 0.318843 19.5895 0.855916 17.7119 1.67001L10.9836 4.59941C6.15561 6.70059 1.40968 8.76973 1.40968 8.76973L1.46619 8.74712C1.46619 8.74712 1.13898 8.85831 0.797184 9.10046C0.586026 9.23936 0.404324 9.42111 0.263073 9.63471C0.0953656 9.88911 -0.0395293 10.2783 0.0106006 10.6806C0.0926313 11.3609 0.519191 11.7689 0.825438 11.9941C1.13533 12.2221 1.43064 12.3286 1.43064 12.3286H1.43793L5.88856 13.8785C6.08816 14.5409 7.2448 18.4719 7.52279 19.3774C7.68685 19.9182 7.84635 20.2565 8.04596 20.5147C8.14258 20.6466 8.2556 20.7568 8.3914 20.8454C8.462 20.8879 8.53728 20.9214 8.61562 20.9453L8.57005 20.934C8.58372 20.9377 8.59466 20.949 8.60468 20.9528C8.64114 20.9632 8.66575 20.9669 8.71223 20.9745C9.41679 21.195 9.9828 20.7427 9.9828 20.7427L10.0147 20.7163L12.6424 18.243L17.0466 21.7358L17.1468 21.7801C18.0646 22.1966 18.9943 21.9648 19.4856 21.5558C19.9805 21.1441 20.1728 20.6174 20.1728 20.6174L20.2047 20.5326L23.6081 2.50859C23.7047 2.06386 23.7293 1.64739 23.6227 1.24317C23.5127 0.83408 23.2588 0.482233 22.9108 0.256655C22.6186 0.0730283 22.2798 -0.0156042 21.9383 0.00225256ZM21.8463 1.93383C21.8426 1.99319 21.8535 1.9866 21.828 2.10061V2.11097L18.4566 19.9475C18.442 19.9729 18.4174 20.0285 18.3499 20.0841C18.2788 20.1425 18.2223 20.1792 17.9261 20.0577L12.5394 15.7884L9.28554 18.8545L9.96913 14.3412L18.7701 5.86106C19.1329 5.51243 19.0116 5.43894 19.0116 5.43894C19.0372 5.01117 18.4639 5.31362 18.4639 5.31362L7.36602 12.4209L7.36237 12.402L2.04314 10.5506V10.5468L2.02947 10.544C2.03879 10.5408 2.04792 10.537 2.05681 10.5327L2.08598 10.5176L2.11423 10.5072C2.11423 10.5072 6.86381 8.43807 11.6918 6.33689C14.1089 5.28441 16.5443 4.2244 18.4174 3.40654C20.2904 2.59339 21.6749 1.99696 21.7533 1.96492C21.828 1.93477 21.7925 1.93383 21.8463 1.93383Z" fill="white"/>
</svg>
