<svg width="27" height="22" viewBox="0 0 27 22" fill="none" xmlns="http://www.w3.org/2000/svg">
<path fill-rule="evenodd" clip-rule="evenodd" d="M16.0232 0.397391C17.1802 -0.0441888 18.4448 -0.119799 19.6461 0.180786C20.6014 0.419817 21.48 0.887573 22.2085 1.53901C23.1044 1.20971 23.9542 0.764045 24.7357 0.212781C25.1114 -0.0522586 25.6122 -0.0564264 25.9923 0.202322C26.3724 0.46107 26.5521 0.928455 26.4433 1.37521C26.0654 2.92675 25.308 4.35684 24.2429 5.53872C24.2593 5.71676 24.2678 5.89553 24.2684 6.07452L24.2684 6.07817C24.2684 12.807 21.0287 17.7435 16.3755 20.2202C11.7492 22.6826 5.8365 22.6554 0.567503 19.7282C0.120955 19.4801 -0.0968489 18.9578 0.0410928 18.466C0.179034 17.9741 0.636631 17.6413 1.14706 17.6616C3.00779 17.7356 4.84977 17.3657 6.52468 16.594C4.86655 15.5708 3.67281 14.3561 2.84288 13.0457C1.73576 11.2976 1.31783 9.44584 1.24224 7.78291C1.16688 6.12481 1.43026 4.63188 1.70714 3.56129C1.84625 3.02342 1.99058 2.58519 2.10183 2.27745C2.15753 2.12341 2.20512 2.00155 2.2399 1.91569C2.2573 1.87275 2.27151 1.83876 2.28195 1.81422L2.29471 1.78451L2.29797 1.77706C2.30574 1.75922 2.31401 1.74152 2.32278 1.72398L3.30943 2.2173L4.21216 1.58334C5.2221 3.02143 6.57201 4.18743 8.14169 4.9775C9.39024 5.60594 10.747 5.981 12.134 6.08524C12.1258 4.86117 12.4895 3.66309 13.1774 2.64978C13.8729 1.62521 14.8663 0.838971 16.0232 0.397391ZM3.75579 4.47161C3.55316 5.3556 3.39135 6.47665 3.44618 7.68273C3.50848 9.05334 3.84893 10.5109 4.70672 11.8653C5.56007 13.2127 6.96737 14.5249 9.27296 15.5496C9.63898 15.7123 9.88805 16.0606 9.92368 16.4595C9.95931 16.8585 9.77588 17.2454 9.44448 17.4704C8.21901 18.3022 6.87709 18.928 5.47162 19.3327C8.96865 20.2237 12.4729 19.7982 15.3389 18.2727C19.2344 16.1993 22.0616 12.0359 22.0622 6.08001C22.0613 5.84163 22.0383 5.60384 21.9936 5.3697C21.9244 5.00803 22.0403 4.63572 22.3025 4.37717C22.5482 4.13483 22.7758 3.87655 22.984 3.60446C22.7342 3.69663 22.4813 3.78126 22.2258 3.8582C21.8104 3.98331 21.3601 3.85324 21.0754 3.52585C20.5594 2.93247 19.8735 2.5119 19.1106 2.32101C18.3477 2.13013 17.5447 2.17815 16.81 2.45857C16.0753 2.73899 15.4444 3.23828 15.0027 3.88892C14.561 4.53956 14.3298 5.31015 14.3404 6.09647L14.3406 6.11126H14.3405V7.21436C14.3405 7.81245 13.8638 8.30159 13.266 8.3171C11.1455 8.37208 9.04445 7.90181 7.14979 6.94816C5.88611 6.31211 4.74042 5.47419 3.75579 4.47161Z" fill="white"/>
</svg>
