<svg width="23" height="23" viewBox="0 0 23 23" fill="none" xmlns="http://www.w3.org/2000/svg">
<path fill-rule="evenodd" clip-rule="evenodd" d="M11.6143 2.81934C6.64369 2.81934 2.61426 6.84877 2.61426 11.8193C2.61426 16.7899 6.64369 20.8193 11.6143 20.8193C16.5848 20.8193 20.6143 16.7899 20.6143 11.8193C20.6143 6.84877 16.5848 2.81934 11.6143 2.81934ZM0.614258 11.8193C0.614258 5.7442 5.53913 0.819336 11.6143 0.819336C17.6894 0.819336 22.6143 5.7442 22.6143 11.8193C22.6143 17.8945 17.6894 22.8193 11.6143 22.8193C5.53913 22.8193 0.614258 17.8945 0.614258 11.8193ZM7.90715 8.11223C8.29768 7.7217 8.93084 7.7217 9.32136 8.11223L11.6143 10.4051L13.9072 8.11223C14.2977 7.7217 14.9308 7.7217 15.3214 8.11223C15.7119 8.50275 15.7119 9.13592 15.3214 9.52644L13.0285 11.8193L15.3214 14.1122C15.7119 14.5028 15.7119 15.1359 15.3214 15.5264C14.9308 15.917 14.2977 15.917 13.9072 15.5264L11.6143 13.2335L9.32136 15.5264C8.93084 15.917 8.29768 15.917 7.90715 15.5264C7.51663 15.1359 7.51663 14.5028 7.90715 14.1122L10.2 11.8193L7.90715 9.52644C7.51663 9.13592 7.51663 8.50275 7.90715 8.11223Z" fill="black"/>
</svg>
