<svg width="23" height="24" viewBox="0 0 23 24" fill="none" xmlns="http://www.w3.org/2000/svg">
<path d="M13.1056 21.9037C12.9073 22.2371 12.6226 22.5139 12.2801 22.7063C11.9375 22.8987 11.5491 23 11.1538 23C10.7585 23 10.3702 22.8987 10.0276 22.7063C9.6851 22.5139 9.4004 22.2371 9.20205 21.9037M17.9231 7.60117C17.9231 5.85043 17.2099 4.1714 15.9404 2.93344C14.6709 1.69548 12.9492 1 11.1538 1C9.35853 1 7.63675 1.69548 6.36728 2.93344C5.0978 4.1714 4.38462 5.85043 4.38462 7.60117C4.38462 15.3025 1 17.5029 1 17.5029H21.3077C21.3077 17.5029 17.9231 15.3025 17.9231 7.60117Z" stroke="white" stroke-width="2" stroke-linecap="round" stroke-linejoin="round"/>
</svg>
