<svg width="25" height="22" viewBox="0 0 25 22" fill="none" xmlns="http://www.w3.org/2000/svg">
<path d="M15.0984 0C16.3043 0.00841227 17.2543 0.634985 17.8053 1.72017C17.8844 1.87499 17.9786 2.06536 18.092 2.29927L18.8784 3.95238C18.9215 4.04345 19.0125 4.1011 19.137 4.10141L19.3955 4.10846C22.2198 4.25607 24.4444 6.59053 24.4444 9.42681V16.6743C24.4444 19.6149 22.0573 22 19.1131 22H5.33256C2.38735 22 0 19.6152 0 16.6743V9.42681C0 6.48509 2.38697 4.1011 5.27409 4.10296L5.36556 4.099C5.45274 4.08781 5.52943 4.03236 5.56694 3.95318L6.16732 2.68609L6.63854 1.7214C7.1922 0.634254 8.14068 0.0084085 9.34604 0H15.0984ZM15.092 1.83136H9.35885C8.86104 1.83483 8.52469 2.05677 8.27272 2.55152C8.19915 2.69613 8.10911 2.87874 7.99923 3.10585L7.22447 4.73574C6.91879 5.38103 6.30489 5.8249 5.54084 5.92107L5.33256 5.9325C3.39941 5.9325 1.83333 7.49663 1.83333 9.42681V16.6743C1.83333 18.6037 3.39987 20.1686 5.33256 20.1686H19.1131C21.0447 20.1686 22.6111 18.6036 22.6111 16.6743V9.42681C22.6111 7.56602 21.1513 6.03413 19.3237 5.9383L18.9277 5.92431C18.1923 5.85921 17.5406 5.41005 17.2208 4.73495L16.3671 2.94363L16.1714 2.55079C15.9207 2.05703 15.5838 1.83483 15.092 1.83136ZM12.2277 7.81591L12.4745 7.82246C15.0087 7.95433 17.0282 10.0604 17.0239 12.6267C17.0193 15.2667 14.8659 17.4192 12.2247 17.4222C9.57887 17.4237 7.41933 15.2623 7.42087 12.624C7.39956 9.99477 9.57383 7.81291 12.2277 7.81591ZM12.2256 9.64731L12.0307 9.65353C10.4842 9.75416 9.24162 11.0637 9.25418 12.6172C9.25324 14.2518 10.592 15.5918 12.2231 15.5908C13.8528 15.589 15.1877 14.2546 15.1905 12.6236C15.1933 10.9859 13.8607 9.64918 12.2256 9.64731ZM19.1944 7.67296C19.2949 7.77182 19.3795 7.89113 19.4264 7.99174L19.4542 8.06308C19.5217 8.21474 19.5558 8.37964 19.5558 8.54601C19.5558 8.86557 19.4309 9.16111 19.1991 9.40712C18.9987 9.60862 18.7356 9.73254 18.4548 9.76037L18.3336 9.76636L18.2144 9.76036C18.0963 9.74825 17.9797 9.71747 17.8491 9.66495C17.7038 9.60047 17.578 9.51844 17.4564 9.39502C17.2379 9.16285 17.1114 8.85923 17.1114 8.54601C17.1114 8.37964 17.1454 8.21474 17.2119 8.06536C17.2785 7.91402 17.3575 7.78636 17.5002 7.64749C17.6088 7.55303 17.72 7.47702 17.8721 7.41011C18.3229 7.23164 18.8593 7.33828 19.1944 7.67296Z" fill="#111111"/>
</svg>
