<svg width="29" height="22" viewBox="0 0 29 22" fill="none" xmlns="http://www.w3.org/2000/svg">
<path d="M14.2736 13.6532L14.6692 13.655C20.019 13.7053 23.0591 14.7966 23.0591 17.8153C23.0591 20.763 20.1531 21.8917 15.0547 21.9925L14.2736 22C8.6777 22 5.48815 20.9304 5.48815 17.8379C5.48815 14.742 8.6905 13.6532 14.2736 13.6532ZM14.2736 15.5996C9.74935 15.5996 7.43452 16.3866 7.43452 17.8379C7.43452 19.2791 9.7442 20.0536 14.2736 20.0536C18.7966 20.0536 21.1128 19.2659 21.1128 17.8153C21.1128 16.3743 18.8024 15.5996 14.2736 15.5996ZM23.4124 12.8448C24.0895 12.8915 24.7553 12.9876 25.3784 13.1282C26.7656 13.3998 27.808 13.9199 28.2922 14.9345C28.6487 15.6841 28.6487 16.5557 28.2922 17.3072C27.8114 18.318 26.7865 18.831 25.3875 19.1187C24.861 19.227 24.3465 18.888 24.2382 18.3615C24.13 17.835 24.469 17.3205 24.9954 17.2122C25.8419 17.0382 26.397 16.7603 26.5341 16.4721C26.6396 16.2497 26.6396 15.9913 26.5351 15.7716C26.3961 15.4805 25.8364 15.2012 24.9778 15.0327C24.4257 14.9085 23.8579 14.8265 23.2785 14.7865C22.7423 14.7496 22.3376 14.2849 22.3746 13.7487C22.4115 13.2125 22.8762 12.8078 23.4124 12.8448ZM6.18484 13.7487C6.22182 14.2849 5.81712 14.7496 5.28092 14.7865C4.84637 14.8165 4.41834 14.8701 3.98731 14.9498L3.55492 15.0383C2.72333 15.2011 2.16412 15.4802 2.02529 15.7721C1.92013 15.9921 1.92013 16.249 2.0266 16.4723C2.16327 16.7606 2.71782 17.0382 3.56396 17.2122C4.09042 17.3205 4.42944 17.835 4.32118 18.3615C4.21292 18.888 3.69838 19.227 3.17192 19.1187C1.77229 18.8309 0.747497 18.3178 0.268787 17.308C-0.0895328 16.5565 -0.0895329 15.6833 0.26841 14.9344C0.718687 13.9878 1.65677 13.4715 2.88639 13.1905L3.15427 13.1338C3.80407 12.9876 4.46995 12.8915 5.14701 12.8448C5.68321 12.8078 6.14786 13.2125 6.18484 13.7487ZM14.2736 0C17.5897 0 20.2532 2.66355 20.2532 5.97957C20.2532 9.29657 17.5899 11.9603 14.2736 11.9603C10.9574 11.9603 8.29406 9.29657 8.29406 5.97957C8.29406 2.66355 10.9576 0 14.2736 0ZM21.6142 1.22216C24.231 1.22216 26.3532 3.34345 26.3532 5.95995C26.3532 8.57645 24.231 10.6977 21.6142 10.6977C21.0767 10.6977 20.641 10.262 20.641 9.72455C20.641 9.18708 21.0767 8.75137 21.6142 8.75137C23.1562 8.75137 24.4068 7.50131 24.4068 5.95995C24.4068 4.41859 23.1562 3.16853 21.6142 3.16853C21.0767 3.16853 20.641 2.73282 20.641 2.19534C20.641 1.65787 21.0767 1.22216 21.6142 1.22216ZM6.94521 1.22216C7.48268 1.22216 7.91839 1.65787 7.91839 2.19534C7.91839 2.73282 7.48268 3.16853 6.94521 3.16853C5.4032 3.16853 4.1526 4.41859 4.1526 5.95995C4.1526 7.50131 5.4032 8.75137 6.94521 8.75137C7.48268 8.75137 7.91839 9.18708 7.91839 9.72455C7.91839 10.262 7.48268 10.6977 6.94521 10.6977C4.32844 10.6977 2.20623 8.57645 2.20623 5.95995C2.20623 3.34345 4.32844 1.22216 6.94521 1.22216ZM14.2736 1.94637C12.0326 1.94637 10.2404 3.7385 10.2404 5.97957C10.2404 8.22169 12.0324 10.014 14.2736 10.014C16.5149 10.014 18.3068 8.22169 18.3068 5.97957C18.3068 3.7385 16.5147 1.94637 14.2736 1.94637Z" fill="black"/>
</svg>
