<svg width="23" height="25" viewBox="0 0 23 25" fill="none" xmlns="http://www.w3.org/2000/svg">
<path d="M15.9158 0C16.3539 0 16.716 0.328086 16.7733 0.753755L16.7812 0.872093L16.7812 1.85783C20.3351 2.10151 22.5112 4.39861 22.5 8.10723V18.718C22.5 22.6491 20.0566 25 16.1296 25H6.37032C2.44792 25 0 22.609 0 18.6301V8.10723C0 4.39994 2.18314 2.10221 5.7293 1.85794L5.72941 0.872093C5.72941 0.390449 6.11685 0 6.59479 0C7.0329 0 7.39497 0.328086 7.45227 0.753755L7.46017 0.872093L7.46 1.83625H15.05L15.0504 0.872093C15.0504 0.390449 15.4378 0 15.9158 0ZM20.7687 10.3538H1.73L1.73076 18.6301C1.73076 21.5365 3.28645 23.1497 6.08621 23.2508L6.37032 23.2558H16.1296C19.1182 23.2558 20.7692 21.6673 20.7692 18.718L20.7687 10.3538ZM16.3861 17.67C16.864 17.67 17.2515 18.0605 17.2515 18.5421C17.2515 18.9836 16.9259 19.3485 16.5035 19.4062L16.3861 19.4142C15.8975 19.4142 15.51 19.0238 15.51 18.5421C15.51 18.1006 15.8356 17.7357 16.258 17.678L16.3861 17.67ZM11.266 17.67C11.7439 17.67 12.1314 18.0605 12.1314 18.5421C12.1314 18.9836 11.8058 19.3485 11.3834 19.4062L11.266 19.4142C10.7773 19.4142 10.3899 19.0238 10.3899 18.5421C10.3899 18.1006 10.7155 17.7357 11.1379 17.678L11.266 17.67ZM6.13516 17.67C6.61309 17.67 7.00054 18.0605 7.00054 18.5421C7.00054 18.9836 6.67498 19.3485 6.25258 19.4062L6.12447 19.4142C5.64653 19.4142 5.25908 19.0238 5.25908 18.5421C5.25908 18.1006 5.58465 17.7357 6.00704 17.678L6.13516 17.67ZM16.3861 13.1508C16.864 13.1508 17.2515 13.5413 17.2515 14.0229C17.2515 14.4644 16.9259 14.8293 16.5035 14.887L16.3861 14.895C15.8975 14.895 15.51 14.5045 15.51 14.0229C15.51 13.5814 15.8356 13.2165 16.258 13.1588L16.3861 13.1508ZM11.266 13.1508C11.7439 13.1508 12.1314 13.5413 12.1314 14.0229C12.1314 14.4644 11.8058 14.8293 11.3834 14.887L11.266 14.895C10.7773 14.895 10.3899 14.5045 10.3899 14.0229C10.3899 13.5814 10.7155 13.2165 11.1379 13.1588L11.266 13.1508ZM6.13516 13.1508C6.61309 13.1508 7.00054 13.5413 7.00054 14.0229C7.00054 14.4644 6.67498 14.8293 6.25258 14.887L6.12447 14.895C5.64653 14.895 5.25908 14.5045 5.25908 14.0229C5.25908 13.5814 5.58465 13.2165 6.00704 13.1588L6.13516 13.1508ZM15.05 3.58H7.46L7.46017 4.69858C7.46017 5.18023 7.07273 5.57067 6.59479 5.57067C6.15668 5.57067 5.79461 5.24259 5.73731 4.81692L5.72941 4.69858L5.72818 3.60651C3.14862 3.82297 1.73076 5.38326 1.73076 8.10723L1.73 8.60875H20.7687L20.7692 8.10456C20.7775 5.37844 19.3669 3.82138 16.7812 3.60624L16.7812 4.69858C16.7812 5.18023 16.3937 5.57067 15.9158 5.57067C15.4777 5.57067 15.1156 5.24259 15.0583 4.81692L15.0504 4.69858L15.05 3.58Z" fill="black"/>
</svg>
