<svg width="24" height="22" viewBox="0 0 24 22" fill="none" xmlns="http://www.w3.org/2000/svg">
<path d="M8.76168 13.8004L9.13078 13.802C14.4915 13.8487 17.5245 14.9314 17.5245 17.8887C17.5245 20.7833 14.6176 21.9 9.49131 21.9935L8.76168 22C3.17025 22 0 20.9371 0 17.9118C0 14.8824 3.18287 13.8004 8.76168 13.8004ZM8.76168 15.5318C4.12478 15.5318 1.73133 16.3454 1.73133 17.9118C1.73133 19.4681 4.11904 20.2687 8.76168 20.2687C13.3989 20.2687 15.7932 19.4549 15.7932 17.8887C15.7932 16.3331 13.4033 15.5318 8.76168 15.5318ZM17.9905 12.983C18.6606 13.0286 19.3268 13.1247 19.967 13.2666C21.3383 13.5394 22.3578 14.0486 22.8249 15.0287C23.1698 15.7544 23.1698 16.5986 22.825 17.3242C22.3604 18.3019 21.3515 18.8074 19.9725 19.091C19.5042 19.1874 19.0465 18.8858 18.9502 18.4175C18.8539 17.9492 19.1554 17.4915 19.6237 17.3952C20.5111 17.2127 21.1017 16.9167 21.2612 16.5811C21.3826 16.3257 21.3826 16.0273 21.2616 15.7727C21.1011 15.4359 20.5074 15.1394 19.611 14.9608C19.0369 14.8337 18.4565 14.7501 17.873 14.7104C17.396 14.6779 17.0356 14.265 17.0681 13.788C17.1005 13.311 17.5135 12.9506 17.9905 12.983ZM8.76168 0C12.0489 0 14.6886 2.63924 14.6886 5.92576C14.6886 9.21323 12.0491 11.8527 8.76168 11.8527C5.47438 11.8527 2.83592 9.21339 2.83592 5.92576C2.83592 2.63908 5.47459 0 8.76168 0ZM16.1818 1.23455C18.7614 1.23455 20.8529 3.32655 20.8529 5.90568C20.8529 8.48561 18.7617 10.5768 16.1818 10.5768C15.7037 10.5768 15.3161 10.1892 15.3161 9.71114C15.3161 9.23305 15.7037 8.84548 16.1818 8.84548C17.8055 8.84548 19.1216 7.52942 19.1216 5.90568C19.1216 4.28265 17.8051 2.96588 16.1818 2.96588C15.7037 2.96588 15.3161 2.57831 15.3161 2.10022C15.3161 1.62212 15.7037 1.23455 16.1818 1.23455ZM8.76168 1.73133C6.43083 1.73133 4.56725 3.59521 4.56725 5.92576C4.56725 8.25732 6.43069 10.1214 8.76168 10.1214C11.093 10.1214 12.9573 8.25704 12.9573 5.92576C12.9573 3.59549 11.0928 1.73133 8.76168 1.73133Z" fill="black"/>
</svg>
